<svg xmlns="http://www.w3.org/2000/svg" viewBox="0 0 512 512"><path d="M255.999 512C397 512 512 397 512 255.999 512 115 397 0 255.999 0 115 0 0 115 0 255.999 0 397 115 512 255.999 512z" fill="#ffca4f"/><path d="M369.746 430.029l-19.941-85.459s68.235-65.651 60.584-149.807c-7.651-84.154-92.451-137.072-178.519-114.129-86.072 22.941-100.329 91.895-100.732 103.206-.406 11.313 10.2 40.24 2.544 60.007-7.651 19.766-35.061 50.687-32.512 59.93 2.553 9.24 26.141 10.837 26.141 10.837s.276 8.941-2.857 10.839c-3.137 1.896-1.369 9.329 3.792 13.461 5.157 4.136 13.736 6.941 13.736 6.941s-9.886 2.231-8.608 9.245c1.279 7.016 4.782 10.524 12.116 10.837 7.331.32 9.247-3.177 10.517.648 1.274 3.821 2.077 4.138 2.077 4.138s-7.327 18.968-.948 32.993c6.381 14.027 16.256 14.038 27.735 11.163 11.481-2.875 33.794-9.249 33.794-9.249l6.107 31.108c6.385 45.274-24.443 68.548-25.095 69.033A256.917 256.917 0 0 0 255.999 512c57.013 0 109.664-18.644 152.211-50.16-4.105-1.976-36.999-30.347-38.461-31.809h-.003z" fill="#ff5b61"/><path d="M159.24 407.647c6.35 10.063 15.348 9.805 25.631 7.23 11.481-2.875 33.794-9.249 33.794-9.249l6.107 31.108c2.178 15.449.022 28.334-3.788 38.629l.007-.007c21.312-30.409 5.594-53.65 8.398-65.19 2.807-11.54 47.406-22.456 56.763-29.631 9.357-7.175 16.06-26.976 16.06-26.976s-9.357 14.347-19.336 23.08c-9.979 8.731-87.483 31.496-102.298 36.486-14.067 4.738-20.705-4.534-21.338-5.48zm51.465-319.919c53.604-19.641 117.094-9.046 155.606 30.339 45.889 46.934 56.583 132.334-23.554 222.699l26.989 89.265-19.941-85.459s68.235-65.651 60.584-149.807c-7.651-84.154-92.451-137.072-178.519-114.129-7.607 2.028-14.642 4.421-21.166 7.095v-.003z" fill="#ec4b53"/><path d="M271.638 122.34c27.889 0 50.5 23.107 50.5 51.609 0 19.288-10.352 36.102-25.686 44.959v23.66c0 2.822-2.256 5.128-5.018 5.128h-37.017c-2.769 0-5.018-2.304-5.018-5.128V220.29c-16.737-8.405-28.255-25.997-28.255-46.341 0-28.502 22.611-51.609 50.5-51.609h-.006z" fill="#fff"/><g fill="#fbb429"><path d="M256.202 247.021h30.872c2.225 0 4.044 1.415 4.044 3.146 0 1.731-1.819 3.144-4.044 3.144 2.225 0 4.044 1.418 4.044 3.146 0 1.729-1.819 3.146-4.044 3.146 2.225 0 4.044 1.413 4.044 3.144v.002c0 1.731-1.819 3.144-4.044 3.144h-30.872c-2.222 0-4.041-1.413-4.041-3.144v-.002c0-1.731 1.819-3.144 4.041-3.144-2.222 0-4.041-1.418-4.041-3.146 0-1.731 1.819-3.146 4.041-3.146-2.222 0-4.041-1.415-4.041-3.144-.001-1.731 1.818-3.146 4.041-3.146zm1.539-74.356l8.021 65.305h11.75l8.023-65.305 2.917.456-8.198 66.743-.179 1.438H263.2l-.176-1.438-8.198-66.743 2.917-.456h-.002z"/><path d="M276.427 164.353l-1.067 7.307 27.43-4.099-37.18 15.518 1.369-10.05-24.39 4.626 33.84-13.302h-.002z"/></g><path d="M269.25 279.103v.926h-3.058v-.926h-1.175c-1.166 0-2.183-.736-2.657-1.795h-.093c-1.623 0-2.941-1.422-2.941-3.164 0-1.111.534-2.086 1.341-2.648h-4.516c-1.623 0-2.941-1.42-2.941-3.164 0-1.74 1.318-3.16 2.941-3.16h30.971c1.623 0 2.941 1.42 2.941 3.16 0 1.746-1.319 3.164-2.941 3.164h-4.518c.807.56 1.343 1.537 1.343 2.648 0 1.742-1.321 3.164-2.937 3.164h-.093c-.478 1.061-1.49 1.795-2.659 1.795h-1.233v.926h-3.056v-.926h-4.725.006z" fill="#fff"/></svg>