<svg xmlns="http://www.w3.org/2000/svg" viewBox="0 0 508 508"><circle cx="254" cy="254" r="254" fill="#324a5e"/><path d="M165.3 492c27.6 10.3 57.5 16 88.7 16s61.1-5.7 88.7-16V390H165.3v102z" fill="#ff7058"/><path d="M287.8 126.2c3.7 29.1-11.1 57.9-33.8 57.9s-37.5-28.7-33.8-57.9c3-23.9 17.9-40.4 33.8-40.4 15.8 0 30.8 16.4 33.8 40.4z" fill="#f9b54c"/><path d="M388.5 272.1l-40.3 24H156.6l-37-24 9.4-66.2c14.6-48 82.9-64.7 82.9-64.7l15.1 14.6 27.1 16.8 27-16.8 15.1-14.6s68.3 16.7 82.9 64.7l9.4 66.2z" fill="#ff7058"/><path d="M286.8 123.1s11.4 17.6-32.8 49.5c0 0 23.9-10.7 29.4 11.6 0 0 41.9-41.9 3.4-61.1zm-65.6 0s-11.4 17.6 32.8 49.5c0 0-23.9-10.7-29.4 11.6 0 0-41.9-41.9-3.4-61.1z" fill="#fff"/><path d="M299.5 78.9c-.7-.4-1.4-.7-2.2-.8 0-1.1.1-2.2.1-3.3 0-32.5-19.4-43.6-43.3-43.6s-43.3 11.1-43.3 43.6c0 1.1 0 2.2.1 3.3-.8.2-1.5.4-2.2.8-4.2 2.8-4.1 10.5.3 17.2 1.7 2.5 3.7 4.5 5.8 5.9 6.9 24.6 21.9 46.6 39.4 46.6s32.5-22.1 39.4-46.6c2.1-1.4 4.1-3.4 5.8-5.9 4.2-6.7 4.3-14.4.1-17.2z" fill="#ffd05b"/><path d="M302.8 57.1c0 3.4-.5 6.6-1.4 9.8h-94.7c-.9-3.1-1.4-6.4-1.4-9.8 0-23 21.8-41.7 48.7-41.7 26.9.1 48.8 18.8 48.8 41.7z" fill="#84dbff"/><path d="M301.8 79.4c-2.3 7.7-14.5 10.1-20.4 3.9-7.5-8-18.6-10.5-27.4-11.1-8.8.6-19.9 3.2-27.4 11.1-5.9 6.2-18 3.8-20.4-3.9-1.2-4-1.5-9.1.1-15.4 0 0 17.4-7.6 47.7-7.9 30.3.2 47.7 7.9 47.7 7.9 1.5 6.3 1.3 11.3.1 15.4z" fill="#54c0eb"/><path d="M342.1 459.6H165.9c-1.1 0-2.1-.9-2.1-2.1V281.3c0-1.1.9-2.1 2.1-2.1h176.2c1.1 0 2.1.9 2.1 2.1v176.2c-.1 1.1-1 2.1-2.1 2.1z" fill="#fff"/><path fill="#f9b54c" d="M228.8 279.3h50.4v19.8h-50.4z"/><path d="M282.1 333.6h-56.3c-4 0-7.2-3.2-7.2-7.2s3.2-7.2 7.2-7.2h56.3c4 0 7.2 3.2 7.2 7.2s-3.2 7.2-7.2 7.2z" fill="#324a5e"/><path d="M388.5 272.1s16.4 64.2 0 99.1l-37.2 76s-8.6 23.9-30 30.6h-14.1l5.9-6.3s25.8-18.4 20.6-42.1c0 0-12.3 3.9-10.5-8.3 0 0 10.7-18.3 24.8-16.3 0 0-4.3-46.4 12.2-73 0 0-23.7-37.6-14.8-52.9-.1.1 8.4-15 43.1-6.8zm-269 0s-16.4 64.2 0 99.1l37.2 76s8.6 23.9 30 30.6h14.1l-5.9-6.3s-25.8-18.4-20.6-42.1c0 0 12.3 3.9 10.5-8.3 0 0-10.7-18.3-24.8-16.3 0 0 4.3-46.4-12.2-73 0 0 23.7-37.6 14.8-52.9.1.1-8.4-15-43.1-6.8z" fill="#ffd05b"/></svg>