<svg xmlns="http://www.w3.org/2000/svg" viewBox="0 0 508 508"><circle cx="254" cy="254" r="254" fill="#54c0eb"/><path d="M319 93c-13.7-13.7-35.9-13.7-49.6 0-5.6 5.6-9.3 17.6-11.7 29.9-2.7-16.4-7.3-33.9-14.9-41.5-16.1-16.1-42.3-16.1-58.4 0s-16.1 42.3 0 58.4c9.2 9.2 32.8 14 51.5 16.4.5 9.9 8.7 17.9 18.8 17.9 9.9 0 17.9-7.6 18.7-17.3 16.2-2 37.5-6.1 45.6-14.2 13.7-13.7 13.7-35.9 0-49.6zm-120.9 2c11.5-11.5 30.2-11.5 41.7 0 7.4 7.4 10.8 27.8 12.3 41.6-7 1-12.7 5.7-15 12.1-13.6-1.6-32.1-5.1-39-12-11.5-11.5-11.5-30.2 0-41.7zm109.3 45c-6.1 6.1-22.9 9-34.6 10.4-1.5-5.7-5.6-10.3-11-12.5 1.4-11.6 4.3-27.3 10.2-33.2 9.8-9.8 25.6-9.8 35.4 0 9.8 9.7 9.8 25.5 0 35.3z" fill="#fff"/><path d="M391.3 415.5H116.7c-1 0-1.8-.8-1.8-1.8V189.6c0-1 .8-1.8 1.8-1.8h274.5c1 0 1.8.8 1.8 1.8v224.1c0 1-.8 1.8-1.7 1.8z" fill="#ff7058"/><path d="M393 213.5v-18.7c0-3.9-3.2-7.1-7.1-7.1H122c-3.9 0-7.1 3.2-7.1 7.1v18.7H393z" fill="#f1543f"/><path d="M401.5 198.2v-37.6c0-3.9-3.2-7.1-7.1-7.1H113.6c-3.9 0-7.1 3.2-7.1 7.1v37.6c0 3.9 3.2 7.1 7.1 7.1h280.8c3.9-.1 7.1-3.2 7.1-7.1z" fill="#ff7058"/><path fill="#e6e9ee" d="M234.4 153.5h39.3v262h-39.3z"/><path fill="#ced5e0" d="M234.4 294.8h39.3v50h-39.3z"/><path fill="#e6e9ee" d="M115 300.2h278.1v39.3H115z"/></svg>