<svg xmlns="http://www.w3.org/2000/svg" viewBox="0 0 36.917 36.917" width="512" height="512"><g fill="#442b7f"><path d="M34.567.012L20.448 1.573c-1.097.121-2.877.121-3.976 0L2.354.012C1.256-.109.366.688.366 1.792v1.666a2 2 0 0 0 2 2H9.04a14.24 14.24 0 0 0 4.061 2.51c-4.237 2.049-7.166 6.375-7.166 11.397 0 2.962 1.025 5.68 2.728 7.837.256-.327.528-.684.818-1.081.68-.95 1.428-2.093 2.147-3.36.352-.639.704-1.304 1.03-1.992.333-.686.629-1.402.903-2.123.041-.114.078-.229.115-.344.163-.51-.871-.683-1.142-.804-.166-.074-.168-.217-.005-.298.29-.145 1.571-.402 1.655-.705l.014-.055c.08-.352.149-.7.213-1.044.108-.579-.449-1.062-1.237-1.106a31.957 31.957 0 0 1-1.424-.11 30.12 30.12 0 0 1-2.553-.358 20.215 20.215 0 0 1-.488-.097c-.269-.058-.277-.203-.017-.3.132-.049.29-.106.472-.167a33.313 33.313 0 0 1 4.175-1.096c.935-.183 1.749-.611 1.802-.998.033-.24.062-.474.084-.701.084-.577.102-1.112.158-1.6l.011-.199c.018-.373.042-.717.062-1.014a1.6 1.6 0 0 1 .005-.069c.004-.177.011-.336.018-.477a12.54 12.54 0 0 0-.99.292 13.214 13.214 0 0 1-3.846-1.936h15.634a13.198 13.198 0 0 1-3.701 1.885 12.627 12.627 0 0 0-3.974-.646c-.845 0-1.67.087-2.468.244.066.12.137.253.216.408.071.148.142.321.214.502.093.233.188.486.29.769l.08.294c.122.441.258.919.331 1.46.034.188.06.383.082.584.035.324.47.54.988.492.312-.029.626-.056.94-.078 2.783-.204 5.579-.171 7.686.043.62.063 1.17.135 1.652.208a12.7 12.7 0 0 0-4.646-3.721 14.238 14.238 0 0 0 3.912-2.445h6.674a2 2 0 0 0 2-2V1.792c.001-1.105-.889-1.902-1.986-1.78zm-.002 31.458l-14.117 1.562c-1.099.12-2.878.12-3.977 0L2.353 31.47c-1.098-.121-1.988.676-1.988 1.78v1.667a2 2 0 0 0 2 2h32.187a2 2 0 0 0 2.001-2V33.25c0-1.104-.89-1.901-1.988-1.78z"/><path d="M2.502 30.108c.551-.006 1.026-.383 1.061-.844l.75-10.019c.034-.46.026-1.204-.018-1.663l-.965-10c-.044-.459-.527-.826-1.078-.82s-1.026.383-1.061.843l-.75 10.019c-.034.46-.026 1.204.018 1.663l.965 10c.044.46.527.827 1.078.821zm32.132-.058c.552-.006 1.026-.383 1.062-.843l.75-10.019c.033-.46.025-1.204-.019-1.663l-.965-10c-.044-.458-.526-.825-1.078-.82-.551.006-1.026.383-1.062.843l-.75 10.019c-.033.46-.025 1.204.019 1.663l.965 10c.044.458.527.826 1.078.82zM15.677 19.046a57.08 57.08 0 0 1-.294.609c-.382.75-.784 1.481-1.217 2.167-.419.696-.888 1.333-1.341 1.94a28.805 28.805 0 0 1-2.694 3.065 28.27 28.27 0 0 1-.991.94 12.81 12.81 0 0 0 1.844 1.7c3.08-1.329 5.965-3.545 8.053-5.954.031-.033.061-.067.091-.103.049-.058-.117-.306-.37-.556a38.927 38.927 0 0 1-.456-.453c-.755-.762-1.325-1.364-1.275-1.346.05.018-.224-.01-.613-.072-.235-.037-.469-.076-.704-.112-.07-.011-.119-.084-.11-.163.009-.066.055-.115.111-.124.469-.071.939-.158 1.408-.217a.18.18 0 0 1 .118.026l.065.039c.474.286.949.568 1.424.853.786.471 1.453.819 1.495.769l.078-.091c.45-.455.799-.981 1.217-1.401.417-.424.764-.873 1.11-1.272.338-.406.708-.742.976-1.091l.103-.122c.057-.067-.906.18-2.187.361-1.121.158-2.145.077-3.265.036-.663-.023-2.212-.192-2.576.572z"/><path d="M27.895 27.95a12.602 12.602 0 0 0 3.373-8.585c0-2.551-.762-4.921-2.059-6.909-.569.186-1.296.4-2.154.615-2.066.517-4.835.955-7.618 1.156-.36.026-.719.048-1.078.066-.595.03-1.096.176-1.118.339a4.988 4.988 0 0 1-.047.294c-.036.171-.078.342-.123.513-.075.282.347.439.956.389.365-.03.735-.05 1.106-.058 1.73-.041 3.464.157 4.768.494.207.052.403.106.586.161.32.097.586.182.596.172.087-.077.172-.065.219.001.012.017.02.035.023.056a.14.14 0 0 0 .08.089l.074.029c.116.046.219.09.303.128.166.074.168.218.004.3a5.948 5.948 0 0 1-.43.2c-.072.032-.145.137-.164.236l-.033.178c-.377 1.997-1.161 3.695-2.297 5.375a3.032 3.032 0 0 1-.16.24c-.092.129.09.401.416.612.199.127.396.253.598.376.537.328 1.098.619 1.618.973.524.35.998.778 1.448 1.248.39.407.763.841 1.113 1.312zm-5.422-1.523a46.464 46.464 0 0 0-.679-.654c-.378-.357-.798-.545-.938-.431a5.714 5.714 0 0 1-.264.2c-2.777 1.955-5.505 3.68-8.684 4.562a12.593 12.593 0 0 0 14.413-.715 13.456 13.456 0 0 1-.938-.49 8.41 8.41 0 0 1-1.539-1.1c-.477-.427-.912-.918-1.371-1.372z"/></g></svg>