<svg xmlns="http://www.w3.org/2000/svg" width="512" height="512" viewBox="0 0 474.389 474.389"><g fill="#FFDA44"><path d="M252.518 434.903H240.69v-53.275c0-.098-.046-.164-.046-.262-.02-.197-.065-.367-.113-.564-.065-.179-.122-.355-.22-.52-.056-.088-.056-.169-.11-.246-.049-.08-.113-.113-.175-.175a2.15 2.15 0 0 0-.4-.387 2.865 2.865 0 0 0-.429-.298 2.854 2.854 0 0 0-.504-.196 2.262 2.262 0 0 0-.533-.108c-.091-.013-.167-.067-.263-.067-.101 0-.186.055-.284.067a2.015 2.015 0 0 0-.512.108c-.194.055-.37.12-.542.213-.08.049-.162.062-.244.104l-15.637 10.67a2.793 2.793 0 0 0-.733 3.885 2.79 2.79 0 0 0 2.319 1.221c.546 0 1.092-.147 1.576-.487l11.256-7.677v47.983h-12.842a2.802 2.802 0 0 0 0 5.604h30.272a2.8 2.8 0 0 0 2.802-2.802 2.79 2.79 0 0 0-2.81-2.791z"/><path d="M379.667 35.19L345.591 1.11C345.072.449 344.307 0 343.408 0H130.979c-.171 0-.33.068-.498.1-.145.028-.282.033-.42.086-.403.14-.772.342-1.064.638L94.728 35.095a2.799 2.799 0 0 0-.635 2.985l111.116 288.512h-4.482a2.799 2.799 0 0 0-2.801 2.802V358.8c-15.831 12.377-24.931 30.807-24.931 50.867 0 35.688 29.037 64.723 64.722 64.723 35.689 0 64.729-29.046 64.729-64.723 0-20.061-9.105-38.49-24.931-50.867v-29.406a2.803 2.803 0 0 0-2.801-2.802h-5.489L380.296 38.175a2.808 2.808 0 0 0-.629-2.985zM260.958 332.467l-.112-.278h.202l-.09.278zM148.988 41.746h176.461l-88.236 229.085-88.225-229.085zM135.064 5.598h.269v.7l-.269-.7zm5.877 0h6.784v30.539h-.892l-5.892-15.287V5.598zm173.372 30.545V5.603h6.785v30.54h-6.785zm-5.603 0h-6.785V5.603h6.785v30.54zm-12.388 0h-6.779V5.603h6.779v30.54zm-12.387 0h-6.782V5.603h6.782v30.54zm-12.386 0h-6.785V5.603h6.785v30.54zm-12.387 0h-6.775V5.603h6.775v30.54zm-12.378 0h-6.785V5.603h6.785v30.54zm-12.389 0h-6.763V5.603h6.763v30.54zm-12.372 0h-6.78V5.603h6.78v30.54zm-12.378 0h-6.78V5.603h6.78v30.54zm-12.378 0h-6.779V5.603h6.779v30.54zm-12.383 0h-6.78V5.603h6.78v30.54zm-12.383 0h-6.78V5.603h6.78v30.54zm-12.382 0h-6.78V5.603h6.78v30.54zm167.486 0h-.9V5.603h6.771v15.303l-5.871 15.237zM339.08 5.598h.297l-.297.75v-.75zm-209.163 2.23l104.681 271.808v.005l19.573 50.813c.013.013.013.022.013.033l2.572 6.659h-41.479L99.978 37.761l29.939-29.933zm166.929 401.839c0 32.591-26.521 59.119-59.119 59.119-32.604 0-59.13-26.517-59.13-59.119 0-18.78 8.673-36.028 23.803-47.327 10.314-7.715 22.532-11.79 35.316-11.79 12.788 0 25.002 4.08 35.321 11.79 15.133 11.309 23.809 28.569 23.809 47.327zm-24.934-77.473v22.577c-.056-.033-.115-.043-.153-.085-2.32-1.441-4.706-2.684-7.14-3.827-.358-.159-.681-.334-1.036-.481a62.083 62.083 0 0 0-8.755-3.091 62.688 62.688 0 0 0-7.629-1.63 27.951 27.951 0 0 0-1.225-.138c-2.726-.355-5.476-.585-8.258-.585-2.776 0-5.534.229-8.256.585-.411.05-.814.093-1.223.138-2.589.377-5.134.94-7.643 1.63-.465.121-.93.263-1.394.394-2.507.756-4.966 1.637-7.363 2.698-.336.139-.663.317-.999.476-2.449 1.128-4.851 2.386-7.165 3.833-.052.042-.107.052-.159.085v-22.577h3.838l3.38 8.766c.42 1.073 1.698 1.784 2.858 1.784h47.47c.355 0 .631-.164.94-.29.05-.02.106-.02.14-.049.677-.296 1.262-.745 1.535-1.465l3.382-8.763 4.855.015zm-8.685-5.603h-4.537l-18.473-47.969L344.48 7.923l29.935 29.938-111.188 288.73z"/><path d="M262.434 368.025a2.802 2.802 0 0 0-1.172-3.787 50.898 50.898 0 0 0-16.852-5.4 2.788 2.788 0 0 0-3.151 2.404 2.789 2.789 0 0 0 2.395 3.15 45.29 45.29 0 0 1 15.004 4.806c.416.216.854.326 1.292.326a2.82 2.82 0 0 0 2.484-1.499zm-16.622 86.577c-2.77.515-5.813.811-8.413.777-2.454 0-4.925-.195-7.341-.586a2.802 2.802 0 0 0-3.212 2.32 2.794 2.794 0 0 0 2.32 3.202c2.725.448 5.655.809 8.278.655 3.151 0 6.308-.295 9.398-.853a2.803 2.803 0 0 0 2.228-3.268 2.82 2.82 0 0 0-3.258-2.247zm25.316-75.776a45.678 45.678 0 0 1 8.471 13.275 2.822 2.822 0 0 0 2.585 1.735c.355 0 .726-.069 1.083-.22a2.787 2.787 0 0 0 1.499-3.66c-2.283-5.489-5.49-10.496-9.506-14.904a2.795 2.795 0 0 0-3.96-.177 2.775 2.775 0 0 0-.172 3.951zm-79.437 31.946c-.037-1.537-1.342-2.731-2.866-2.726a2.796 2.796 0 0 0-2.737 2.87 51.135 51.135 0 0 0 3.454 17.354 2.802 2.802 0 0 0 5.22-2.035 45.625 45.625 0 0 1-3.071-15.463zm91.357-3.292a45.733 45.733 0 0 1-2.642 17.72 2.808 2.808 0 0 0 2.638 3.762 2.81 2.81 0 0 0 2.635-1.852 51.147 51.147 0 0 0 3.033-17.428c0-.821-.013-1.629-.056-2.457-.075-1.543-1.368-2.768-2.923-2.67a2.78 2.78 0 0 0-2.685 2.925zm-67.889 42.144a46.057 46.057 0 0 1-12.245-9.927c-1.018-1.158-2.795-1.284-3.955-.274a2.81 2.81 0 0 0-.269 3.958 51.167 51.167 0 0 0 13.739 11.141 2.794 2.794 0 0 0 3.809-1.084 2.783 2.783 0 0 0-1.079-3.814zm-14.08-72.232a2.806 2.806 0 0 0-3.94.462 51.015 51.015 0 0 0-8.421 15.55 2.792 2.792 0 0 0 1.771 3.54c.291.104.595.147.884.147a2.799 2.799 0 0 0 2.657-1.924 45.347 45.347 0 0 1 7.501-13.846c.965-1.215.757-2.987-.452-3.929zm10.737-6.144c.502 0 1.011-.126 1.478-.41a45.523 45.523 0 0 1 14.612-5.889 2.801 2.801 0 0 0 2.164-3.32c-.319-1.517-1.811-2.469-3.324-2.174a51.21 51.21 0 0 0-16.41 6.61 2.804 2.804 0 0 0 1.48 5.183zm60.746 67.618a45.95 45.95 0 0 1-12.011 10.212c-1.33.785-1.768 2.493-.994 3.839a2.797 2.797 0 0 0 2.419 1.38c.481 0 .977-.121 1.415-.39a51.395 51.395 0 0 0 13.467-11.458 2.82 2.82 0 0 0-.355-3.945c-1.2-.997-2.97-.833-3.941.362z"/></g></svg>