<svg xmlns="http://www.w3.org/2000/svg" viewBox="0 0 508 508"><circle cx="254" cy="254" r="254" fill="#90dfaa"/><path d="M58.4 416.1C105 472.2 175.3 508 254 508s149-35.8 195.6-91.9H58.4z" fill="#2c9984"/><path d="M254 280.2c-1.5 0-2.8-1.2-2.8-2.8v-222c0-1.5 1.2-2.8 2.8-2.8 1.5 0 2.8 1.2 2.8 2.8v222c0 1.6-1.3 2.8-2.8 2.8z" fill="#324a5e"/><path d="M326.1 416H181.9c-.9 0-1.7-.8-1.7-1.7V270.2c0-.9.8-1.7 1.7-1.7H326c.9 0 1.7.8 1.7 1.7v144.1c0 1-.7 1.7-1.6 1.7z" fill="#e6e9ee"/><path d="M274.6 268.5v15.6c-1.3-.1-2.5-.2-3.8-.3-2.2-.2-4.6-.3-6.4 1-1.3-1.6-3.6-1.7-5.7-1.6l-10 .3c-.7 0-1.3.1-1.9.2-.7.2-1.3.7-2.1.8-2.2.5-4.7-1.4-6.6-.1-.4.3-.8.7-1.2.9-.6.3-1.2.3-1.9.3h-1.6v-17.2h41.2v.1z" fill="#ff7058"/><path d="M277 312.9h-46c-3.2 0-5.9-2.6-5.9-5.9 0-3.2 2.6-5.9 5.9-5.9h46c3.2 0 5.9 2.6 5.9 5.9 0 3.3-2.6 5.9-5.9 5.9z" fill="#324a5e"/><path d="M418 214.5c-5.4-4.6-12.5-7.3-20.1-7.3-9.9 0-18.8 4.6-24.5 11.9-6.5-10.4-18-17.5-31.2-17.5-14.2 0-26.4 8-32.6 19.7-9.1-15.8-30.6-26.8-55.6-26.8s-46.4 11-55.5 26.8c-6.2-11.7-18.5-19.7-32.6-19.7-13.3 0-24.8 7-31.3 17.5-5.7-7.2-14.5-11.9-24.5-11.9-7.6 0-14.6 2.7-20 7.2C98.7 131.5 168.8 66.9 254 66.9s155.2 64.6 164 147.6z" fill="#f1543f"/><path d="M373.4 218.9l-.1.1c-6.5-10.4-18-17.5-31.2-17.5-14.2 0-26.4 8-32.6 19.7-9.1-15.8-30.6-26.8-55.6-26.8s-46.4 11-55.5 26.8c-6.2-11.7-18.5-19.7-32.6-19.7-13.3 0-24.8 7-31.3 17.5l-.1-.1c4.8-85.1 56.5-152 119.5-152 63.1 0 114.7 66.9 119.5 152z" fill="#fff"/><path d="M309.7 220.8c-.1.1-.2.3-.2.4-9.1-15.8-30.6-26.8-55.6-26.8s-46.4 11-55.5 26.8c-.1-.2-.2-.3-.3-.4 2-86 26.2-153.9 55.8-153.9 29.6 0 53.8 68 55.8 153.9z" fill="#ff7058"/></svg>