<svg xmlns="http://www.w3.org/2000/svg" viewBox="0 0 508 508"><circle cx="254" cy="254" r="254" fill="#54c0eb"/><path d="M400.9 404H107.1c-1.7 0-3-1.3-3-3V107.1c0-1.7 1.3-3 3-3H401c1.7 0 3 1.3 3 3V401c0 1.6-1.4 3-3.1 3z" fill="#fff"/><path d="M218.6 220h-87.8c-.8 0-1.4-.6-1.4-1.4v-87.8c0-.8.6-1.4 1.4-1.4h87.8c.8 0 1.4.6 1.4 1.4v87.8c0 .8-.6 1.4-1.4 1.4z" fill="#324a5e"/><path fill="#fff" d="M143.6 143.6h62.2v62.2h-62.2z"/><path d="M155.3 155.3h38.8v38.8h-38.8zm63.3 223.3h-87.8c-.8 0-1.4-.6-1.4-1.4v-87.8c0-.8.6-1.4 1.4-1.4h87.8c.8 0 1.4.6 1.4 1.4v87.8c0 .8-.6 1.4-1.4 1.4z" fill="#324a5e"/><path fill="#fff" d="M143.6 302.2h62.2v62.2h-62.2z"/><path d="M155.3 313.9h38.8v38.8h-38.8zM377.2 220h-87.8c-.8 0-1.4-.6-1.4-1.4v-87.8c0-.8.6-1.4 1.4-1.4h87.8c.8 0 1.4.6 1.4 1.4v87.8c0 .8-.6 1.4-1.4 1.4z" fill="#324a5e"/><path fill="#fff" d="M302.2 143.6h62.2v62.2h-62.2z"/><path d="M313.9 155.3h38.8v38.8h-38.8zm63.3 223.3h-87.8c-.8 0-1.4-.6-1.4-1.4v-87.8c0-.8.6-1.4 1.4-1.4h87.8c.8 0 1.4.6 1.4 1.4v87.8c0 .8-.6 1.4-1.4 1.4z" fill="#324a5e"/><path fill="#fff" d="M302.2 302.2h62.2v62.2h-62.2z"/><g fill="#324a5e"><path d="M313.9 313.9h38.8v38.8h-38.8zm-78.4-184.5h11.3v24.1h-11.3zM265 182v-6.2h-8.6v-4h7.6V157h8.1v-15.5h-11.3v6.2h-8.1v16.1h-7.5v6.3h-8.1v24.1h11.2v-14.8h5.4v12h11.1v14.7h11.3V182zm-135.1 50.9h14.6V260h-14.6zm48.8 29.4H210V275h-31.3zm35.9-26.1h-20.2v6.4h-29.8v12.6H196v-6.3h10V260h20.3v-12.6h-11.7zm109.2 15.1h-15.7v-11.2h-20.2v7.3h-12.8v10.3h-14.4v12.6h20.2V260h14.5v-7.2h8.1V264h17.9v8.7h20.2V260h-17.8z"/><path d="M334.4 243.1h20.2v12.7h-20.2zm23.4-8.4H378v12.7h-20.2zm-124 10.3H254v12.7h-20.2zm-88.2 17.5h20.2v12.7h-20.2zm117.5 91.9h11.3v24.3h-11.3zm1.6-16.6h8.1v-24.3h-11.3v14.8h-5.4v-12h-11.2v-11.8h.4v-12.6h-17.5v12.6h5.8v21.2h11.2v6.3h8.6v4h-7.6v24.2h11.3V344h7.6z"/></g></svg>