<svg xmlns="http://www.w3.org/2000/svg" viewBox="0 0 508 508"><circle cx="254" cy="254" r="254" fill="#324a5e"/><path d="M307.2 126c-1.6.4-3.2 1.2-4.4 2 0 0-6.4 3.2-10.8 9.6-12-4-24.8-6-38-6s-26 2-38 6c-4.4-6.4-10.8-9.6-10.8-9.6-1.6-.8-3.2-1.2-4.4-2 2.8-5.2 6.8-9.2 12.4-11.6l21.2-10.4c.8-2.8 4-6.4 4-6.4-1.6-2.4-2.8-4.8-4-7.6-1.6 0-3.6-1.6-4.4-3.6-.8-2-.8-4.4 0-5.6-3.2-8.8-5.6-22.4 5.6-32.4l-5.6.4s6.8-12.4 20-8c0 0-1.2-2-5.2-3.2 0 0 6-2.4 9.6 1.6 0 0 2-1.6 0-3.2 0 0 10.4.4 19.6 9.2 12 11.6 9.2 26.4 4.8 36 .4 1.2.4 3.2-.4 4.8-.8 2-2.4 3.2-4 3.6-.8 1.2-3.6 6-4.4 7.6 0 0 3.2 4 4 6.8l21.2 10.4c4.8 2.4 9.2 6.4 12 11.6zm0 256c-2.8 5.2-6.8 9.2-12.4 11.6L273.6 404c-.8 2.8-4 6.4-4 6.4 1.6 2.4 2.8 4.8 4 7.6 1.6 0 3.6 1.6 4.4 3.6s.8 4.4 0 5.6c3.2 8.8 5.6 22.4-5.6 32.4l5.6-1.2s-6.8 12.4-20 8c0 0 1.2 2 5.2 3.2 0 0-6 2.8-9.6-1.6 0 0-2 1.6 0 3.2 0 0-10.4-.4-19.6-8.8-12-11.6-9.2-26.4-4.8-36-.4-1.2-.4-3.2.4-4.8.8-2 2.4-3.2 4-3.6.8-1.2 3.6-6 4.4-7.6 0 0-3.2-4-4-6.8l-20.8-9.6c-5.2-2.4-9.6-6.8-12.4-11.6 1.6-.4 3.2-1.2 4.4-2 0 0 6.4-3.2 10.8-9.6 12 4 24.8 6 38 6s26-2 38-6c4.4 6.4 10.8 9.6 10.8 9.6 1.2.8 2.8 1.2 4.4 1.6z" fill="#ffd05b"/><path d="M472 254s-.4 10.4-8.8 19.6c-11.6 12-26.4 9.2-36 4.8-1.2.4-3.2.4-4.8-.4-2-.8-3.2-2.4-3.6-4-1.2-.8-6-3.6-7.6-4.4 0 0-4 3.2-6.8 4L394 294.8c-2.4 5.2-6.8 9.6-11.6 12.4-.4-1.6-1.2-3.2-2-4.4 0 0-3.2-6.4-9.6-10.8 4-12 6-24.8 6-38s-2-26-6-38c6.4-4.4 9.6-10.8 9.6-10.8.8-1.6 1.2-3.2 2-4.8 5.2 2.8 9.2 6.8 11.6 12.4l10.4 21.2c2.8.8 6.4 4 6.4 4 2.4-1.6 4.8-2.8 7.6-4 0-1.6 1.6-3.6 3.6-4.4 2-.8 4.4-.8 5.6 0 8.8-3.2 22.4-5.6 32.8 5.6l-1.2-5.6s12.4 6.8 8 20c0 0 2-1.2 3.2-5.6 0 0 2.4 6-1.6 9.6 0 .4 1.6 2.4 3.2.4zm-334.8-38c-4 12-6 24.8-6 38s2 26 6 38c-6.4 4.4-9.6 10.8-9.6 10.8-.8 1.6-1.2 3.2-2 4.4-5.2-2.8-9.2-6.8-11.6-12.4l-10.4-21.2c-2.8-.8-6.4-4-6.4-4-2.4 1.6-4.8 2.8-7.6 4 0 1.6-1.6 3.6-3.6 4.4s-4.4.8-5.6 0c-8.8 3.2-22.4 5.6-32.8-5.6l1.2 5.6s-12.4-6.8-8-20c0 0-2 1.2-3.2 5.2 0 0-2.4-6 1.6-9.6 0 0-1.6-2-3.2 0 0 0 .4-10.4 8.8-19.6 11.6-12 26.4-9.2 36-4.8 1.2-.4 3.2-.4 4.8.4 2 .8 3.2 2.4 3.6 4 1.2.8 6 3.6 7.6 4.4 0 0 4-3.2 6.8-4l10.4-21.2c2.4-5.2 6.8-9.6 11.6-12.4.4 1.6 1.2 3.2 2 4.4 0 .8 3.2 6.8 9.6 11.2z" fill="#4cdbc4"/><path d="M415.6 120c.4 16.8-12 25.2-22 29.2-.4 1.2-2 2.4-3.6 3.2-2 .8-4 .4-5.2-.4-1.6.4-6.8 1.6-8.4 2 0 0-.4 5.2-2 7.6L382 184c2.4 7.2 2 14.8-1.6 21.6 0 0-3.2 6.4-9.6 10.8-6-18.8-16.4-35.6-30-49.2s-30.4-24-48.8-30c4.4-6.4 10.8-9.6 10.8-9.6 6.8-3.6 14.4-4 21.6-1.6l22.4 7.6c2.4-1.6 7.2-2 7.6-1.6.4-2.8 1.6-5.6 2.4-8-1.2-1.2-1.6-3.6-.8-5.6.8-2 2.4-3.6 4-4 4-8.8 12-20 26.8-19.2L382 92s13.6-4 19.6 8.4c0 0 .4-2.4-1.6-6 0 0 6 2.4 5.6 8 0 0 2.4.4 2-2.4.4 0 7.6 7.6 8 20z" fill="#ff7058"/><path d="M254 376.8c-68 0-122.8-54.8-122.8-122.8S186 131.2 254 131.2 376.8 186 376.8 254 322 376.8 254 376.8z" fill="#fff"/><path d="M216 370.8c-4.4 6.4-10.8 9.6-10.8 9.6-6.8 3.6-14.4 4-21.6 1.6l-22-8c-2.4 1.6-7.2 2-7.6 1.6-.4 2.8-1.6 5.6-2.4 8 1.2 1.2 1.6 3.6.8 5.6s-2.4 3.6-4 4c-4 8.8-12 20-26.8 19.2l4.8 3.2s-13.6 4-19.6-8.4c0 0-.4 2.4 1.6 6 0 0-6-2.4-5.6-7.6 0 0-2.4-.4-2 2 0 0-7.2-7.6-7.6-20-.4-16.8 12-25.2 22-29.2.4-1.2 2-2.4 3.6-3.2 2-.8 4-.4 5.2.4 1.6-.4 6.8-1.6 8.4-2 0 0 .4-5.2 2-7.6l-7.6-22.4c-2.4-7.2-2-14.8 1.6-21.6 0 0 3.2-6.4 9.6-10.8 11.2 38 40.8 67.6 78 79.6z" fill="#ff7058"/><g fill="#54c0eb"><path d="M413.6 400.4s-2.4 6-7.6 5.6c0 0-.4 2.4 2.4 2.4 0 0-7.6 7.2-20 7.2-16.8.4-25.2-12-29.2-22-1.2-.8-2.4-2-3.2-3.6-.8-2-.4-4 .4-5.2-.4-1.6-1.6-6.8-2-8.4 0 0-5.2-.4-7.6-2L324 382c-7.2 2.4-14.8 2-21.6-1.6 0 0-6.4-3.2-10.8-9.6 18.8-6 35.6-16.4 48.8-30 13.6-13.6 24-30.4 30-48.8 6.4 4.4 9.6 10.8 9.6 10.8 3.6 6.8 4 14.4 1.6 21.6l-7.6 22c1.6 2.4 2 7.2 1.6 7.6 2.8.4 5.6 1.6 8 2.4 1.2-1.2 3.6-1.6 5.6-.8 2 .8 3.6 2.4 4 4 8.8 4 20 12 19.2 26.8l3.2-4.8s4 13.6-8.4 19.6c.4.8 2.8 1.2 6.4-.8z"/><path d="M369.2 296.8c-1.2 2.8-2.4 5.6-3.6 8.8 1.2-2.8 2.4-5.6 3.6-8.8zM216 137.2c-18.8 6-35.6 16.4-48.8 30-13.6 13.6-24 30.4-30 49.2-6.4-4.4-9.6-10.8-9.6-10.8-3.6-6.8-4-14.4-1.6-21.6l7.6-22.4c-1.6-2.4-2-7.2-1.6-7.6-2.8-.4-5.6-1.6-8-2.4-1.2 1.2-3.6 1.6-5.6.8s-3.6-2.4-4-4c-8.8-4-20-12-19.2-26.8L92 126s-4-13.6 8.4-19.6c0 0-2.4-.4-6 1.6 0 0 2.4-6 7.6-5.6 0 0 .4-2.4-2.4-2 0 0 7.6-7.2 20-7.6 16.8-.4 25.2 12 29.2 22 1.2.8 2.4 2 3.2 3.6.8 2 .4 4-.4 5.2.4 1.6 1.6 6.8 2 8.4 0 0 5.2.4 7.6 2l22.4-7.6c7.2-2.4 14.8-2 21.6 1.6.4-.4 6.4 2.8 10.8 9.2z"/></g><path d="M254 376.8c-68 0-122.8-54.8-122.8-122.8S186 131.2 254 131.2 376.8 186 376.8 254 322 376.8 254 376.8z" fill="#fff"/></svg>