<svg xmlns="http://www.w3.org/2000/svg" viewBox="0 0 508 508"><circle cx="254" cy="254" r="254" fill="#fd8469"/><path d="M328.7 106.2c-8-10-19.6-15.7-31.7-15.7h-86c-12.2 0-23.7 5.7-31.7 15.7-9.2 11.5-12.7 27.2-9.4 42.1l10.3 46.3c6.3-5.8 14.9-9.5 26-9.5h.3l-9.6-42.8c-1.5-6.7 0-13.7 3.9-18.6 1.6-2 5-5.3 10-5.3H297c5 0 8.5 3.3 10 5.3 4 5 5.4 11.9 3.9 18.6l-10.2 45.5c1-.1 2.1-.2 3.1-.2 9.8 0 17.6 2.9 23.7 7.6l10.5-46.9c3.4-14.9-.1-30.6-9.3-42.1z" fill="#2b3b4e"/><circle cx="254" cy="291.6" r="125.9" fill="#324a5e"/><path d="M272.5 416.2c-6 .9-12.2 1.3-18.5 1.3-69.5 0-125.9-56.4-125.9-125.9 0-36.5 15.5-69.3 40.3-92.4-12.9 21.6-20.3 46.9-20.3 73.9 0 73.1 54.1 133.4 124.4 143.1z" fill="#2b3b4e"/><path d="M201.7 264.3H214V287l20.9-22.7h15.3l-22 24.5c1.9 2.6 5.4 7.6 10.5 14.8 5.1 7.2 8.9 12.6 11.5 16.1h-14.4l-16.2-21.8-5.5 6.2v15.7h-12.3v-55.5h-.1zm92.2 27.1h12.4V311c-5.5 6.1-13.1 9.2-22.8 9.2-8.1 0-15-2.7-20.5-8.1s-8.3-12.2-8.3-20.4 2.8-15.1 8.4-20.5c5.6-5.5 12.4-8.2 20.3-8.2s14.8 2.6 20.7 7.8l-6.4 9.3c-2.5-2.2-4.8-3.7-6.8-4.5-2.1-.8-4.3-1.2-6.8-1.2-4.7 0-8.7 1.6-11.9 4.8-3.2 3.2-4.8 7.4-4.8 12.6s1.5 9.4 4.6 12.5 6.8 4.7 11 4.7c4.3 0 7.8-.8 10.7-2.5v-15.1h.2z" fill="#e6e9ee"/></svg>