<?xml version="1.0" encoding="iso-8859-1"?>
<!-- Generator: Adobe Illustrator 19.0.0, SVG Export Plug-In . SVG Version: 6.00 Build 0)  -->
<svg version="1.1" id="Layer_1" xmlns="http://www.w3.org/2000/svg" xmlns:xlink="http://www.w3.org/1999/xlink" x="0px" y="0px"
	 viewBox="0 0 508 508" style="enable-background:new 0 0 508 508;" xml:space="preserve">
<circle style="fill:#324A5E;" cx="254" cy="254" r="254"/>
<path style="fill:#FF7058;" d="M165.3,492c27.6,10.3,57.5,16,88.7,16s61.1-5.7,88.7-16V390H165.3V492z"/>
<path style="fill:#F9B54C;" d="M287.8,126.2c3.7,29.1-11.1,57.9-33.8,57.9s-37.5-28.7-33.8-57.9c3-23.9,17.9-40.4,33.8-40.4
	C269.8,85.8,284.8,102.2,287.8,126.2z"/>
<path style="fill:#FF7058;" d="M388.5,272.1l-40.3,24H156.6l-37-24l9.4-66.2c14.6-48,82.9-64.7,82.9-64.7l15.1,14.6l27.1,16.8
	l27-16.8l15.1-14.6c0,0,68.3,16.7,82.9,64.7L388.5,272.1z"/>
<g>
	<path style="fill:#FFFFFF;" d="M286.8,123.1c0,0,11.4,17.6-32.8,49.5c0,0,23.9-10.7,29.4,11.6C283.4,184.2,325.3,142.3,286.8,123.1
		z"/>
	<path style="fill:#FFFFFF;" d="M221.2,123.1c0,0-11.4,17.6,32.8,49.5c0,0-23.9-10.7-29.4,11.6C224.6,184.2,182.7,142.3,221.2,123.1
		z"/>
</g>
<path style="fill:#FFD05B;" d="M299.5,78.9c-0.7-0.4-1.4-0.7-2.2-0.8c0-1.1,0.1-2.2,0.1-3.3c0-32.5-19.4-43.6-43.3-43.6
	s-43.3,11.1-43.3,43.6c0,1.1,0,2.2,0.1,3.3c-0.8,0.2-1.5,0.4-2.2,0.8c-4.2,2.8-4.1,10.5,0.3,17.2c1.7,2.5,3.7,4.5,5.8,5.9
	c6.9,24.6,21.9,46.6,39.4,46.6s32.5-22.1,39.4-46.6c2.1-1.4,4.1-3.4,5.8-5.9C303.6,89.4,303.7,81.7,299.5,78.9z"/>
<path style="fill:#84DBFF;" d="M302.8,57.1c0,3.4-0.5,6.6-1.4,9.8h-94.7c-0.9-3.1-1.4-6.4-1.4-9.8c0-23,21.8-41.7,48.7-41.7
	C280.9,15.5,302.8,34.2,302.8,57.1z"/>
<path style="fill:#54C0EB;" d="M301.8,79.4c-2.3,7.7-14.5,10.1-20.4,3.9c-7.5-8-18.6-10.5-27.4-11.1c-8.8,0.6-19.9,3.2-27.4,11.1
	c-5.9,6.2-18,3.8-20.4-3.9c-1.2-4-1.5-9.1,0.1-15.4c0,0,17.4-7.6,47.7-7.9c30.3,0.2,47.7,7.9,47.7,7.9
	C303.2,70.3,303,75.3,301.8,79.4z"/>
<path style="fill:#FFFFFF;" d="M342.1,459.6H165.9c-1.1,0-2.1-0.9-2.1-2.1V281.3c0-1.1,0.9-2.1,2.1-2.1h176.2c1.1,0,2.1,0.9,2.1,2.1
	v176.2C344.1,458.6,343.2,459.6,342.1,459.6z"/>
<rect x="228.8" y="279.3" style="fill:#F9B54C;" width="50.4" height="19.8"/>
<path style="fill:#324A5E;" d="M282.1,333.6h-56.3c-4,0-7.2-3.2-7.2-7.2l0,0c0-4,3.2-7.2,7.2-7.2h56.3c4,0,7.2,3.2,7.2,7.2l0,0
	C289.3,330.4,286.1,333.6,282.1,333.6z"/>
<g>
	<path style="fill:#FFD05B;" d="M388.5,272.1c0,0,16.4,64.2,0,99.1l-37.2,76c0,0-8.6,23.9-30,30.6h-14.1l5.9-6.3
		c0,0,25.8-18.4,20.6-42.1c0,0-12.3,3.9-10.5-8.3c0,0,10.7-18.3,24.8-16.3c0,0-4.3-46.4,12.2-73c0,0-23.7-37.6-14.8-52.9
		C345.3,279,353.8,263.9,388.5,272.1z"/>
	<path style="fill:#FFD05B;" d="M119.5,272.1c0,0-16.4,64.2,0,99.1l37.2,76c0,0,8.6,23.9,30,30.6h14.1l-5.9-6.3
		c0,0-25.8-18.4-20.6-42.1c0,0,12.3,3.9,10.5-8.3c0,0-10.7-18.3-24.8-16.3c0,0,4.3-46.4-12.2-73c0,0,23.7-37.6,14.8-52.9
		C162.7,279,154.2,263.9,119.5,272.1z"/>
</g>
<g>
</g>
<g>
</g>
<g>
</g>
<g>
</g>
<g>
</g>
<g>
</g>
<g>
</g>
<g>
</g>
<g>
</g>
<g>
</g>
<g>
</g>
<g>
</g>
<g>
</g>
<g>
</g>
<g>
</g>
</svg>
