<?xml version="1.0" encoding="iso-8859-1"?>
<!-- Generator: Adobe Illustrator 19.0.0, SVG Export Plug-In . SVG Version: 6.00 Build 0)  -->
<svg version="1.1" id="Layer_1" xmlns="http://www.w3.org/2000/svg" xmlns:xlink="http://www.w3.org/1999/xlink" x="0px" y="0px"
	 viewBox="0 0 508 508" style="enable-background:new 0 0 508 508;" xml:space="preserve">
<circle style="fill:#54C0EB;" cx="254" cy="254" r="254"/>
<path style="fill:#FFFFFF;" d="M319,93c-13.7-13.7-35.9-13.7-49.6,0c-5.6,5.6-9.3,17.6-11.7,29.9c-2.7-16.4-7.3-33.9-14.9-41.5
	c-16.1-16.1-42.3-16.1-58.4,0s-16.1,42.3,0,58.4c9.2,9.2,32.8,14,51.5,16.4c0.5,9.9,8.7,17.9,18.8,17.9c9.9,0,17.9-7.6,18.7-17.3
	c16.2-2,37.5-6.1,45.6-14.2C332.7,128.9,332.7,106.7,319,93z M198.1,95c11.5-11.5,30.2-11.5,41.7,0c7.4,7.4,10.8,27.8,12.3,41.6
	c-7,1-12.7,5.7-15,12.1c-13.6-1.6-32.1-5.1-39-12C186.6,125.2,186.6,106.5,198.1,95z M307.4,140c-6.1,6.1-22.9,9-34.6,10.4
	c-1.5-5.7-5.6-10.3-11-12.5c1.4-11.6,4.3-27.3,10.2-33.2c9.8-9.8,25.6-9.8,35.4,0C317.2,114.4,317.2,130.2,307.4,140z"/>
<path style="fill:#FF7058;" d="M391.3,415.5H116.7c-1,0-1.8-0.8-1.8-1.8V189.6c0-1,0.8-1.8,1.8-1.8h274.5c1,0,1.8,0.8,1.8,1.8v224.1
	C393,414.7,392.2,415.5,391.3,415.5z"/>
<path style="fill:#F1543F;" d="M393,213.5v-18.7c0-3.9-3.2-7.1-7.1-7.1H122c-3.9,0-7.1,3.2-7.1,7.1v18.7H393z"/>
<path style="fill:#FF7058;" d="M401.5,198.2v-37.6c0-3.9-3.2-7.1-7.1-7.1H113.6c-3.9,0-7.1,3.2-7.1,7.1v37.6c0,3.9,3.2,7.1,7.1,7.1
	h280.8C398.3,205.2,401.5,202.1,401.5,198.2z"/>
<rect x="234.4" y="153.5" style="fill:#E6E9EE;" width="39.3" height="262"/>
<rect x="234.4" y="294.8" style="fill:#CED5E0;" width="39.3" height="50"/>
<rect x="115" y="300.2" style="fill:#E6E9EE;" width="278.1" height="39.3"/>
<g>
</g>
<g>
</g>
<g>
</g>
<g>
</g>
<g>
</g>
<g>
</g>
<g>
</g>
<g>
</g>
<g>
</g>
<g>
</g>
<g>
</g>
<g>
</g>
<g>
</g>
<g>
</g>
<g>
</g>
</svg>
