<?xml version="1.0" encoding="iso-8859-1"?>
<!-- Generator: Adobe Illustrator 18.1.1, SVG Export Plug-In . SVG Version: 6.00 Build 0)  -->
<svg xmlns="http://www.w3.org/2000/svg" xmlns:xlink="http://www.w3.org/1999/xlink" version="1.1" id="Capa_1" x="0px" y="0px" viewBox="0 0 36.917 36.917" style="enable-background:new 0 0 36.917 36.917;" xml:space="preserve" width="512px" height="512px">
<g>
	<g>
		<path d="M34.567,0.012L20.448,1.573c-1.097,0.121-2.877,0.121-3.976,0L2.354,0.012    c-1.098-0.121-1.988,0.676-1.988,1.78v1.666c0,1.105,0.895,2,2,2H9.04c1.235,1.08,2.605,1.925,4.061,2.51    c-4.237,2.049-7.166,6.375-7.166,11.397c0,2.962,1.025,5.68,2.728,7.837c0.256-0.327,0.528-0.684,0.818-1.081    c0.68-0.95,1.428-2.093,2.147-3.36c0.352-0.639,0.704-1.304,1.03-1.992c0.333-0.686,0.629-1.402,0.903-2.123    c0.041-0.114,0.078-0.229,0.115-0.344c0.163-0.51-0.871-0.683-1.142-0.804c-0.166-0.074-0.168-0.217-0.005-0.298    c0.29-0.145,1.571-0.402,1.655-0.705c0.005-0.018,0.01-0.037,0.014-0.055c0.08-0.352,0.149-0.7,0.213-1.044    c0.108-0.579-0.449-1.062-1.237-1.106c-0.501-0.028-0.979-0.065-1.424-0.11c-1.054-0.107-1.935-0.239-2.553-0.358    c-0.188-0.035-0.351-0.068-0.488-0.097c-0.269-0.058-0.277-0.203-0.017-0.3c0.132-0.049,0.29-0.106,0.472-0.167    c0.599-0.207,1.458-0.466,2.491-0.724c0.52-0.13,1.085-0.255,1.684-0.372c0.935-0.183,1.749-0.611,1.802-0.998    c0.033-0.24,0.062-0.474,0.084-0.701c0.084-0.577,0.102-1.112,0.158-1.6c0.003-0.07,0.007-0.131,0.011-0.199    c0.018-0.373,0.042-0.717,0.062-1.014c0.001-0.021,0.003-0.048,0.005-0.069c0.004-0.177,0.011-0.336,0.018-0.477    c-0.336,0.085-0.666,0.181-0.99,0.292c-1.358-0.421-2.655-1.072-3.846-1.936h15.634c-1.148,0.833-2.396,1.464-3.701,1.885    c-1.252-0.414-2.585-0.646-3.974-0.646c-0.845,0-1.67,0.087-2.468,0.244c0.066,0.12,0.137,0.253,0.216,0.408    c0.071,0.148,0.142,0.321,0.214,0.502c0.093,0.233,0.188,0.486,0.29,0.769c0.024,0.091,0.053,0.198,0.08,0.294    c0.122,0.441,0.258,0.919,0.331,1.46c0.034,0.188,0.06,0.383,0.082,0.584c0.035,0.324,0.47,0.54,0.988,0.492    c0.312-0.029,0.626-0.056,0.94-0.078c2.783-0.204,5.579-0.171,7.686,0.043c0.62,0.063,1.17,0.135,1.652,0.208    c-1.226-1.582-2.814-2.862-4.646-3.721c1.399-0.581,2.72-1.402,3.912-2.445h6.674c1.104,0,2-0.895,2-2V1.792    C36.554,0.687,35.664-0.11,34.567,0.012z" fill="#442b7f"/>
		<path d="M34.565,31.47l-14.117,1.562c-1.099,0.12-2.878,0.12-3.977,0L2.353,31.47    c-1.098-0.121-1.988,0.676-1.988,1.78v1.667c0,1.105,0.895,2,2,2h32.187c1.104,0,2.001-0.895,2.001-2V33.25    C36.553,32.146,35.663,31.349,34.565,31.47z" fill="#442b7f"/>
		<path d="M2.502,30.108c0.551-0.006,1.026-0.383,1.061-0.844l0.75-10.019    c0.034-0.46,0.026-1.204-0.018-1.663l-0.965-10c-0.044-0.459-0.527-0.826-1.078-0.82S1.226,7.145,1.191,7.605l-0.75,10.019    c-0.034,0.46-0.026,1.204,0.018,1.663l0.965,10C1.468,29.747,1.951,30.114,2.502,30.108z" fill="#442b7f"/>
		<path d="M34.634,30.05c0.552-0.006,1.026-0.383,1.062-0.843l0.75-10.019    c0.033-0.46,0.025-1.204-0.019-1.663l-0.965-10c-0.044-0.458-0.526-0.825-1.078-0.82c-0.551,0.006-1.026,0.383-1.062,0.843    l-0.75,10.019c-0.033,0.46-0.025,1.204,0.019,1.663l0.965,10C33.6,29.688,34.083,30.056,34.634,30.05z" fill="#442b7f"/>
		<path d="M15.677,19.046c-0.097,0.204-0.195,0.407-0.294,0.609c-0.382,0.75-0.784,1.481-1.217,2.167    c-0.419,0.696-0.888,1.333-1.341,1.94c-0.913,1.213-1.86,2.233-2.694,3.065c-0.353,0.353-0.682,0.659-0.991,0.94    c0.557,0.625,1.174,1.194,1.844,1.7c3.08-1.329,5.965-3.545,8.053-5.954c0.031-0.033,0.061-0.067,0.091-0.103    c0.049-0.058-0.117-0.306-0.37-0.556c-0.153-0.149-0.305-0.301-0.456-0.453c-0.755-0.762-1.325-1.364-1.275-1.346    c0.05,0.018-0.224-0.01-0.613-0.072c-0.235-0.037-0.469-0.076-0.704-0.112c-0.07-0.011-0.119-0.084-0.11-0.163    c0.009-0.066,0.055-0.115,0.111-0.124c0.469-0.071,0.939-0.158,1.408-0.217c0.042-0.005,0.083,0.004,0.118,0.026l0.065,0.039    c0.474,0.286,0.949,0.568,1.424,0.853c0.786,0.471,1.453,0.819,1.495,0.769c0.026-0.031,0.053-0.062,0.078-0.091    c0.45-0.455,0.799-0.981,1.217-1.401c0.417-0.424,0.764-0.873,1.11-1.272c0.338-0.406,0.708-0.742,0.976-1.091    c0.035-0.043,0.069-0.083,0.103-0.122c0.057-0.067-0.906,0.18-2.187,0.361c-1.121,0.158-2.145,0.077-3.265,0.036    C17.59,18.451,16.041,18.282,15.677,19.046z" fill="#442b7f"/>
		<path d="M27.895,27.95c2.088-2.258,3.373-5.268,3.373-8.585c0-2.551-0.762-4.921-2.059-6.909    c-0.569,0.186-1.296,0.4-2.154,0.615c-2.066,0.517-4.835,0.955-7.618,1.156c-0.36,0.026-0.719,0.048-1.078,0.066    c-0.595,0.03-1.096,0.176-1.118,0.339c-0.013,0.098-0.028,0.196-0.047,0.294c-0.036,0.171-0.078,0.342-0.123,0.513    c-0.075,0.282,0.347,0.439,0.956,0.389c0.365-0.03,0.735-0.05,1.106-0.058c1.73-0.041,3.464,0.157,4.768,0.494    c0.207,0.052,0.403,0.106,0.586,0.161c0.32,0.097,0.586,0.182,0.596,0.172c0.087-0.077,0.172-0.065,0.219,0.001    c0.012,0.017,0.02,0.035,0.023,0.056c0.008,0.033,0.039,0.073,0.08,0.089c0.025,0.01,0.051,0.02,0.074,0.029    c0.116,0.046,0.219,0.09,0.303,0.128c0.166,0.074,0.168,0.218,0.004,0.3c-0.082,0.042-0.182,0.09-0.297,0.141    c-0.041,0.019-0.086,0.039-0.133,0.059c-0.072,0.032-0.145,0.137-0.164,0.236c-0.01,0.057-0.021,0.116-0.033,0.178    c-0.377,1.997-1.161,3.695-2.297,5.375c-0.049,0.084-0.104,0.162-0.16,0.24c-0.092,0.129,0.09,0.401,0.416,0.612    c0.199,0.127,0.396,0.253,0.598,0.376c0.537,0.328,1.098,0.619,1.618,0.973c0.524,0.35,0.998,0.778,1.448,1.248    C27.172,27.045,27.545,27.479,27.895,27.95z" fill="#442b7f"/>
		<path d="M22.473,26.427c-0.224-0.221-0.451-0.438-0.679-0.654c-0.378-0.357-0.798-0.545-0.938-0.431    c-0.086,0.069-0.174,0.136-0.264,0.2c-2.777,1.955-5.505,3.68-8.684,4.562c1.943,1.213,4.232,1.926,6.692,1.926    c2.91,0.001,5.583-0.99,7.721-2.641c-0.319-0.152-0.633-0.314-0.938-0.49c-0.546-0.312-1.067-0.666-1.539-1.1    C23.367,27.372,22.932,26.881,22.473,26.427z" fill="#442b7f"/>
	</g>
</g>
<g>
</g>
<g>
</g>
<g>
</g>
<g>
</g>
<g>
</g>
<g>
</g>
<g>
</g>
<g>
</g>
<g>
</g>
<g>
</g>
<g>
</g>
<g>
</g>
<g>
</g>
<g>
</g>
<g>
</g>
</svg>
