<?xml version="1.0" encoding="iso-8859-1"?>
<!-- Generator: Adobe Illustrator 16.0.0, SVG Export Plug-In . SVG Version: 6.00 Build 0)  -->
<!DOCTYPE svg PUBLIC "-//W3C//DTD SVG 1.1//EN" "http://www.w3.org/Graphics/SVG/1.1/DTD/svg11.dtd">
<svg xmlns="http://www.w3.org/2000/svg" xmlns:xlink="http://www.w3.org/1999/xlink" version="1.1" id="Capa_1" x="0px" y="0px" width="512px" height="512px" viewBox="0 0 474.389 474.389" style="enable-background:new 0 0 474.389 474.389;" xml:space="preserve">
<g>
	<g>
		<path d="M252.518,434.903H240.69v-53.275c0-0.098-0.046-0.164-0.046-0.262c-0.02-0.197-0.065-0.367-0.113-0.564    c-0.065-0.179-0.122-0.355-0.22-0.52c-0.056-0.088-0.056-0.169-0.11-0.246c-0.049-0.08-0.113-0.113-0.175-0.175    c-0.115-0.148-0.257-0.279-0.4-0.387c-0.136-0.117-0.279-0.21-0.429-0.298c-0.156-0.081-0.323-0.142-0.504-0.196    c-0.173-0.056-0.347-0.094-0.533-0.108c-0.091-0.013-0.167-0.067-0.263-0.067c-0.101,0-0.186,0.055-0.284,0.067    c-0.176,0.015-0.343,0.048-0.512,0.108c-0.194,0.055-0.37,0.12-0.542,0.213c-0.08,0.049-0.162,0.062-0.244,0.104l-15.637,10.67    c-1.275,0.858-1.606,2.617-0.733,3.885c0.544,0.799,1.422,1.221,2.319,1.221c0.546,0,1.092-0.147,1.576-0.487l11.256-7.677v47.983    h-12.842c-1.545,0-2.801,1.253-2.801,2.802c0,1.545,1.256,2.802,2.801,2.802h30.272c1.552,0,2.802-1.257,2.802-2.802    C255.328,436.145,254.078,434.903,252.518,434.903z" fill="#FFDA44"/>
		<path d="M379.667,35.19l-34.076-34.08C345.072,0.449,344.307,0,343.408,0H130.979c-0.171,0-0.33,0.068-0.498,0.1    c-0.145,0.028-0.282,0.033-0.42,0.086c-0.403,0.14-0.772,0.342-1.064,0.638L94.728,35.095c-0.785,0.785-1.032,1.957-0.635,2.985    l111.116,288.512h-4.482c-1.549,0-2.801,1.252-2.801,2.802v29.406c-15.831,12.377-24.931,30.807-24.931,50.867    c0,35.688,29.037,64.723,64.722,64.723c35.689,0,64.729-29.046,64.729-64.723c0-20.061-9.105-38.49-24.931-50.867v-29.406    c0-1.55-1.259-2.802-2.801-2.802h-5.489L380.296,38.175C380.694,37.138,380.442,35.968,379.667,35.19z M260.958,332.467    l-0.112-0.278h0.202L260.958,332.467z M148.988,41.746h176.461l-88.236,229.085L148.988,41.746z M135.064,5.598h0.269v0.7    L135.064,5.598z M140.941,5.598h6.784v30.539h-0.892l-5.892-15.287V5.598z M314.313,36.143V5.603h6.785v30.54H314.313z     M308.71,36.143h-6.785V5.603h6.785V36.143z M296.322,36.143h-6.779V5.603h6.779V36.143z M283.935,36.143h-6.782V5.603h6.782    V36.143z M271.549,36.143h-6.785V5.603h6.785V36.143z M259.162,36.143h-6.775V5.603h6.775V36.143z M246.784,36.143h-6.785V5.603    h6.785V36.143z M234.395,36.143h-6.763V5.603h6.763V36.143z M222.023,36.143h-6.78V5.603h6.78V36.143z M209.645,36.143h-6.78    V5.603h6.78V36.143z M197.267,36.143h-6.779V5.603h6.779V36.143z M184.884,36.143h-6.78V5.603h6.78V36.143z M172.501,36.143h-6.78    V5.603h6.78V36.143z M160.119,36.143h-6.78V5.603h6.78V36.143z M327.605,36.143h-0.9V5.603h6.771v15.303L327.605,36.143z     M339.08,5.598h0.297l-0.297,0.75V5.598z M129.917,7.828l104.681,271.808v0.005l19.573,50.813    c0.013,0.013,0.013,0.022,0.013,0.033l2.572,6.659h-41.479L99.978,37.761L129.917,7.828z M296.846,409.667    c0,32.591-26.521,59.119-59.119,59.119c-32.604,0-59.13-26.517-59.13-59.119c0-18.78,8.673-36.028,23.803-47.327    c10.314-7.715,22.532-11.79,35.316-11.79c12.788,0,25.002,4.08,35.321,11.79C288.17,373.649,296.846,390.909,296.846,409.667z     M271.912,332.194v22.577c-0.056-0.033-0.115-0.043-0.153-0.085c-2.32-1.441-4.706-2.684-7.14-3.827    c-0.358-0.159-0.681-0.334-1.036-0.481c-2.386-1.056-4.843-1.942-7.344-2.69c-0.468-0.139-0.939-0.275-1.411-0.401    c-2.493-0.689-5.046-1.253-7.629-1.63c-0.402-0.056-0.812-0.099-1.225-0.138c-2.726-0.355-5.476-0.585-8.258-0.585    c-2.776,0-5.534,0.229-8.256,0.585c-0.411,0.05-0.814,0.093-1.223,0.138c-2.589,0.377-5.134,0.94-7.643,1.63    c-0.465,0.121-0.93,0.263-1.394,0.394c-2.507,0.756-4.966,1.637-7.363,2.698c-0.336,0.139-0.663,0.317-0.999,0.476    c-2.449,1.128-4.851,2.386-7.165,3.833c-0.052,0.042-0.107,0.052-0.159,0.085v-22.577h3.838l3.38,8.766    c0.42,1.073,1.698,1.784,2.858,1.784h47.229h0.241c0.355,0,0.631-0.164,0.94-0.29c0.05-0.02,0.106-0.02,0.14-0.049    c0.677-0.296,1.262-0.745,1.535-1.465l3.382-8.763L271.912,332.194L271.912,332.194z M263.227,326.591h-4.537l-18.473-47.969    L344.48,7.923l29.935,29.938L263.227,326.591z" fill="#FFDA44"/>
		<path d="M262.434,368.025c0.724-1.368,0.196-3.07-1.172-3.787c-5.268-2.78-10.944-4.585-16.852-5.4    c-1.54-0.214-2.94,0.858-3.151,2.404c-0.21,1.53,0.851,2.941,2.395,3.15c5.253,0.716,10.31,2.336,15.004,4.806    c0.416,0.216,0.854,0.326,1.292,0.326C260.958,369.519,261.93,368.977,262.434,368.025z" fill="#FFDA44"/>
		<path d="M245.812,454.602c-2.77,0.515-5.813,0.811-8.413,0.777c-2.454,0-4.925-0.195-7.341-0.586    c-1.522-0.252-2.965,0.794-3.212,2.32c-0.246,1.526,0.797,2.96,2.32,3.202c2.725,0.448,5.655,0.809,8.278,0.655    c3.151,0,6.308-0.295,9.398-0.853c1.518-0.296,2.513-1.75,2.228-3.268C248.776,455.335,247.338,454.339,245.812,454.602z" fill="#FFDA44"/>
		<path d="M271.128,378.826c3.59,3.918,6.43,8.395,8.471,13.275c0.451,1.073,1.493,1.735,2.585,1.735    c0.355,0,0.726-0.069,1.083-0.22c1.421-0.583,2.102-2.227,1.499-3.66c-2.283-5.489-5.49-10.496-9.506-14.904    c-1.051-1.151-2.824-1.222-3.96-0.177C270.149,375.916,270.073,377.688,271.128,378.826z" fill="#FFDA44"/>
		<path d="M191.691,410.772c-0.037-1.537-1.342-2.731-2.866-2.726c-1.55,0.032-2.774,1.315-2.737,2.87    c0.14,5.962,1.3,11.808,3.454,17.354c0.429,1.103,1.491,1.779,2.61,1.779c0.341,0,0.684-0.061,1.015-0.191    c1.438-0.56,2.155-2.185,1.595-3.623C192.847,421.291,191.815,416.09,191.691,410.772z" fill="#FFDA44"/>
		<path d="M283.048,407.48c0.031,0.732,0.053,1.453,0.053,2.199c0,5.328-0.908,10.554-2.695,15.521    c-0.527,1.461,0.228,3.07,1.685,3.596c0.317,0.12,0.636,0.166,0.953,0.166c1.148,0,2.219-0.713,2.635-1.852    c2.016-5.581,3.033-11.446,3.033-17.428c0-0.821-0.013-1.629-0.056-2.457c-0.075-1.543-1.368-2.768-2.923-2.67    C284.168,404.618,282.964,405.924,283.048,407.48z" fill="#FFDA44"/>
		<path d="M215.159,449.624c-4.627-2.583-8.752-5.931-12.245-9.927c-1.018-1.158-2.795-1.284-3.955-0.274    c-1.166,1.03-1.284,2.792-0.269,3.958c3.922,4.502,8.538,8.246,13.739,11.141c0.432,0.24,0.903,0.355,1.363,0.355    c0.98,0,1.938-0.519,2.446-1.439C217.003,452.085,216.521,450.373,215.159,449.624z" fill="#FFDA44"/>
		<path d="M201.079,377.392c-1.216-0.952-2.976-0.761-3.94,0.462c-3.71,4.683-6.539,9.919-8.421,15.55    c-0.487,1.478,0.301,3.053,1.771,3.54c0.291,0.104,0.595,0.147,0.884,0.147c1.175,0,2.265-0.743,2.657-1.924    c1.676-5.02,4.203-9.688,7.501-13.846C202.496,380.106,202.288,378.334,201.079,377.392z" fill="#FFDA44"/>
		<path d="M211.816,371.248c0.502,0,1.011-0.126,1.478-0.41c4.51-2.802,9.424-4.788,14.612-5.889    c1.514-0.317,2.484-1.806,2.164-3.32c-0.319-1.517-1.811-2.469-3.324-2.174c-5.825,1.245-11.347,3.459-16.41,6.61    c-1.312,0.821-1.715,2.545-0.903,3.853C209.965,370.777,210.871,371.248,211.816,371.248z" fill="#FFDA44"/>
		<path d="M272.562,438.866c-3.396,4.081-7.442,7.518-12.011,10.212c-1.33,0.785-1.768,2.493-0.994,3.839    c0.523,0.887,1.453,1.38,2.419,1.38c0.481,0,0.977-0.121,1.415-0.39c5.127-3.025,9.665-6.878,13.467-11.458    c0.984-1.188,0.82-2.948-0.355-3.945C275.303,437.507,273.533,437.671,272.562,438.866z" fill="#FFDA44"/>
	</g>
</g>
<g>
</g>
<g>
</g>
<g>
</g>
<g>
</g>
<g>
</g>
<g>
</g>
<g>
</g>
<g>
</g>
<g>
</g>
<g>
</g>
<g>
</g>
<g>
</g>
<g>
</g>
<g>
</g>
<g>
</g>
</svg>
