<?xml version="1.0" encoding="iso-8859-1"?>
<!-- Generator: Adobe Illustrator 19.0.0, SVG Export Plug-In . SVG Version: 6.00 Build 0)  -->
<svg version="1.1" id="Layer_1" xmlns="http://www.w3.org/2000/svg" xmlns:xlink="http://www.w3.org/1999/xlink" x="0px" y="0px"
	 viewBox="0 0 508 508" style="enable-background:new 0 0 508 508;" xml:space="preserve">
<circle style="fill:#90DFAA;" cx="254" cy="254" r="254"/>
<path style="fill:#2C9984;" d="M58.4,416.1C105,472.2,175.3,508,254,508s149-35.8,195.6-91.9H58.4z"/>
<path style="fill:#324A5E;" d="M254,280.2L254,280.2c-1.5,0-2.8-1.2-2.8-2.8v-222c0-1.5,1.2-2.8,2.8-2.8l0,0c1.5,0,2.8,1.2,2.8,2.8
	v222C256.8,279,255.5,280.2,254,280.2z"/>
<path style="fill:#E6E9EE;" d="M326.1,416H181.9c-0.9,0-1.7-0.8-1.7-1.7V270.2c0-0.9,0.8-1.7,1.7-1.7H326c0.9,0,1.7,0.8,1.7,1.7
	v144.1C327.7,415.3,327,416,326.1,416z"/>
<path style="fill:#FF7058;" d="M274.6,268.5v15.6c-1.3-0.1-2.5-0.2-3.8-0.3c-2.2-0.2-4.6-0.3-6.4,1c-1.3-1.6-3.6-1.7-5.7-1.6
	c-3.3,0.1-6.7,0.2-10,0.3c-0.7,0-1.3,0.1-1.9,0.2c-0.7,0.2-1.3,0.7-2.1,0.8c-2.2,0.5-4.7-1.4-6.6-0.1c-0.4,0.3-0.8,0.7-1.2,0.9
	c-0.6,0.3-1.2,0.3-1.9,0.3c-0.6,0-1.1,0-1.6,0v-17.2h41.2V268.5z"/>
<path style="fill:#324A5E;" d="M277,312.9h-46c-3.2,0-5.9-2.6-5.9-5.9l0,0c0-3.2,2.6-5.9,5.9-5.9h46c3.2,0,5.9,2.6,5.9,5.9l0,0
	C282.9,310.3,280.3,312.9,277,312.9z"/>
<path style="fill:#F1543F;" d="M418,214.5c-5.4-4.6-12.5-7.3-20.1-7.3c-9.9,0-18.8,4.6-24.5,11.9c-6.5-10.4-18-17.5-31.2-17.5
	c-14.2,0-26.4,8-32.6,19.7c-9.1-15.8-30.6-26.8-55.6-26.8s-46.4,11-55.5,26.8c-6.2-11.7-18.5-19.7-32.6-19.7
	c-13.3,0-24.8,7-31.3,17.5c-5.7-7.2-14.5-11.9-24.5-11.9c-7.6,0-14.6,2.7-20,7.2C98.7,131.5,168.8,66.9,254,66.9
	C339.2,66.9,409.2,131.5,418,214.5z"/>
<path style="fill:#FFFFFF;" d="M373.4,218.9c-0.1,0.1-0.1,0.1-0.1,0.1c-6.5-10.4-18-17.5-31.2-17.5c-14.2,0-26.4,8-32.6,19.7
	c-9.1-15.8-30.6-26.8-55.6-26.8s-46.4,11-55.5,26.8c-6.2-11.7-18.5-19.7-32.6-19.7c-13.3,0-24.8,7-31.3,17.5
	c-0.1-0.1-0.1-0.1-0.1-0.1c4.8-85.1,56.5-152,119.5-152C317,66.9,368.6,133.8,373.4,218.9z"/>
<path style="fill:#FF7058;" d="M309.7,220.8c-0.1,0.1-0.2,0.3-0.2,0.4c-9.1-15.8-30.6-26.8-55.6-26.8s-46.4,11-55.5,26.8
	c-0.1-0.2-0.2-0.3-0.3-0.4c2-86,26.2-153.9,55.8-153.9C283.5,66.9,307.7,134.9,309.7,220.8z"/>
<g>
</g>
<g>
</g>
<g>
</g>
<g>
</g>
<g>
</g>
<g>
</g>
<g>
</g>
<g>
</g>
<g>
</g>
<g>
</g>
<g>
</g>
<g>
</g>
<g>
</g>
<g>
</g>
<g>
</g>
</svg>
