<?xml version="1.0" encoding="iso-8859-1"?>
<!-- Generator: Adobe Illustrator 19.0.0, SVG Export Plug-In . SVG Version: 6.00 Build 0)  -->
<svg version="1.1" id="Layer_1" xmlns="http://www.w3.org/2000/svg" xmlns:xlink="http://www.w3.org/1999/xlink" x="0px" y="0px"
	 viewBox="0 0 508 508" style="enable-background:new 0 0 508 508;" xml:space="preserve">
<circle style="fill:#54C0EB;" cx="254" cy="254" r="254"/>
<path style="fill:#FFFFFF;" d="M400.9,404H107.1c-1.7,0-3-1.3-3-3V107.1c0-1.7,1.3-3,3-3H401c1.7,0,3,1.3,3,3V401
	C404,402.6,402.6,404,400.9,404z"/>
<path style="fill:#324A5E;" d="M218.6,220h-87.8c-0.8,0-1.4-0.6-1.4-1.4v-87.8c0-0.8,0.6-1.4,1.4-1.4h87.8c0.8,0,1.4,0.6,1.4,1.4
	v87.8C220,219.4,219.4,220,218.6,220z"/>
<rect x="143.6" y="143.6" style="fill:#FFFFFF;" width="62.2" height="62.2"/>
<g>
	<rect x="155.3" y="155.3" style="fill:#324A5E;" width="38.8" height="38.8"/>
	<path style="fill:#324A5E;" d="M218.6,378.6h-87.8c-0.8,0-1.4-0.6-1.4-1.4v-87.8c0-0.8,0.6-1.4,1.4-1.4h87.8c0.8,0,1.4,0.6,1.4,1.4
		v87.8C220,378,219.4,378.6,218.6,378.6z"/>
</g>
<rect x="143.6" y="302.2" style="fill:#FFFFFF;" width="62.2" height="62.2"/>
<g>
	<rect x="155.3" y="313.9" style="fill:#324A5E;" width="38.8" height="38.8"/>
	<path style="fill:#324A5E;" d="M377.2,220h-87.8c-0.8,0-1.4-0.6-1.4-1.4v-87.8c0-0.8,0.6-1.4,1.4-1.4h87.8c0.8,0,1.4,0.6,1.4,1.4
		v87.8C378.6,219.4,378,220,377.2,220z"/>
</g>
<rect x="302.2" y="143.6" style="fill:#FFFFFF;" width="62.2" height="62.2"/>
<g>
	<rect x="313.9" y="155.3" style="fill:#324A5E;" width="38.8" height="38.8"/>
	<path style="fill:#324A5E;" d="M377.2,378.6h-87.8c-0.8,0-1.4-0.6-1.4-1.4v-87.8c0-0.8,0.6-1.4,1.4-1.4h87.8c0.8,0,1.4,0.6,1.4,1.4
		v87.8C378.6,378,378,378.6,377.2,378.6z"/>
</g>
<rect x="302.2" y="302.2" style="fill:#FFFFFF;" width="62.2" height="62.2"/>
<g>
	<rect x="313.9" y="313.9" style="fill:#324A5E;" width="38.8" height="38.8"/>
	<rect x="235.5" y="129.4" style="fill:#324A5E;" width="11.3" height="24.1"/>
	<polygon style="fill:#324A5E;" points="265,182 265,175.8 256.4,175.8 256.4,171.8 264,171.8 264,157 272.1,157 272.1,141.5 
		260.8,141.5 260.8,147.7 252.7,147.7 252.7,163.8 245.2,163.8 245.2,170.1 237.1,170.1 237.1,194.2 248.3,194.2 248.3,179.4 
		253.7,179.4 253.7,191.4 264.8,191.4 264.8,206.1 276.1,206.1 276.1,182 	"/>
	<rect x="129.9" y="232.9" style="fill:#324A5E;" width="14.6" height="27.1"/>
	<rect x="178.7" y="262.3" style="fill:#324A5E;" width="31.3" height="12.7"/>
	<polygon style="fill:#324A5E;" points="214.6,236.2 194.4,236.2 194.4,242.6 164.6,242.6 164.6,255.2 196,255.2 196,248.9 
		206,248.9 206,260 226.3,260 226.3,247.4 214.6,247.4 	"/>
	<polygon style="fill:#324A5E;" points="323.8,251.3 308.1,251.3 308.1,240.1 287.9,240.1 287.9,247.4 275.1,247.4 275.1,257.7 
		260.7,257.7 260.7,270.3 280.9,270.3 280.9,260 295.4,260 295.4,252.8 303.5,252.8 303.5,264 321.4,264 321.4,272.7 341.6,272.7 
		341.6,260 323.8,260 	"/>
	<rect x="334.4" y="243.1" style="fill:#324A5E;" width="20.2" height="12.7"/>
	<rect x="357.8" y="234.7" style="fill:#324A5E;" width="20.2" height="12.7"/>
	<rect x="233.8" y="245" style="fill:#324A5E;" width="20.2" height="12.7"/>
	<rect x="145.6" y="262.5" style="fill:#324A5E;" width="20.2" height="12.7"/>
	<rect x="263.1" y="354.4" style="fill:#324A5E;" width="11.3" height="24.3"/>
	<polygon style="fill:#324A5E;" points="264.7,337.8 272.8,337.8 272.8,313.5 261.5,313.5 261.5,328.3 256.1,328.3 256.1,316.3 
		244.9,316.3 244.9,304.5 245.3,304.5 245.3,291.9 227.8,291.9 227.8,304.5 233.6,304.5 233.6,325.7 244.8,325.7 244.8,332 
		253.4,332 253.4,336 245.8,336 245.8,360.2 257.1,360.2 257.1,344 264.7,344 	"/>
</g>
<g>
</g>
<g>
</g>
<g>
</g>
<g>
</g>
<g>
</g>
<g>
</g>
<g>
</g>
<g>
</g>
<g>
</g>
<g>
</g>
<g>
</g>
<g>
</g>
<g>
</g>
<g>
</g>
<g>
</g>
</svg>
