<?xml version="1.0" encoding="iso-8859-1"?>
<!-- Generator: Adobe Illustrator 19.0.0, SVG Export Plug-In . SVG Version: 6.00 Build 0)  -->
<svg version="1.1" id="Layer_1" xmlns="http://www.w3.org/2000/svg" xmlns:xlink="http://www.w3.org/1999/xlink" x="0px" y="0px"
	 viewBox="0 0 508 508" style="enable-background:new 0 0 508 508;" xml:space="preserve">
<circle style="fill:#324A5E;" cx="254" cy="254" r="254"/>
<g>
	<path style="fill:#FFD05B;" d="M307.2,126c-1.6,0.4-3.2,1.2-4.4,2c0,0-6.4,3.2-10.8,9.6c-12-4-24.8-6-38-6s-26,2-38,6
		c-4.4-6.4-10.8-9.6-10.8-9.6c-1.6-0.8-3.2-1.2-4.4-2c2.8-5.2,6.8-9.2,12.4-11.6l21.2-10.4c0.8-2.8,4-6.4,4-6.4
		c-1.6-2.4-2.8-4.8-4-7.6c-1.6,0-3.6-1.6-4.4-3.6c-0.8-2-0.8-4.4,0-5.6c-3.2-8.8-5.6-22.4,5.6-32.4l-5.6,0.4c0,0,6.8-12.4,20-8
		c0,0-1.2-2-5.2-3.2c0,0,6-2.4,9.6,1.6c0,0,2-1.6,0-3.2c0,0,10.4,0.4,19.6,9.2c12,11.6,9.2,26.4,4.8,36c0.4,1.2,0.4,3.2-0.4,4.8
		c-0.8,2-2.4,3.2-4,3.6c-0.8,1.2-3.6,6-4.4,7.6c0,0,3.2,4,4,6.8l21.2,10.4C300,116.8,304.4,120.8,307.2,126z"/>
	<path style="fill:#FFD05B;" d="M307.2,382c-2.8,5.2-6.8,9.2-12.4,11.6L273.6,404c-0.8,2.8-4,6.4-4,6.4c1.6,2.4,2.8,4.8,4,7.6
		c1.6,0,3.6,1.6,4.4,3.6s0.8,4.4,0,5.6c3.2,8.8,5.6,22.4-5.6,32.4l5.6-1.2c0,0-6.8,12.4-20,8c0,0,1.2,2,5.2,3.2c0,0-6,2.8-9.6-1.6
		c0,0-2,1.6,0,3.2c0,0-10.4-0.4-19.6-8.8c-12-11.6-9.2-26.4-4.8-36c-0.4-1.2-0.4-3.2,0.4-4.8c0.8-2,2.4-3.2,4-3.6
		c0.8-1.2,3.6-6,4.4-7.6c0,0-3.2-4-4-6.8l-20.8-9.6c-5.2-2.4-9.6-6.8-12.4-11.6c1.6-0.4,3.2-1.2,4.4-2c0,0,6.4-3.2,10.8-9.6
		c12,4,24.8,6,38,6c13.2,0,26-2,38-6c4.4,6.4,10.8,9.6,10.8,9.6C304,381.2,305.6,381.6,307.2,382z"/>
</g>
<g>
	<path style="fill:#4CDBC4;" d="M472,254c0,0-0.4,10.4-8.8,19.6c-11.6,12-26.4,9.2-36,4.8c-1.2,0.4-3.2,0.4-4.8-0.4
		c-2-0.8-3.2-2.4-3.6-4c-1.2-0.8-6-3.6-7.6-4.4c0,0-4,3.2-6.8,4L394,294.8c-2.4,5.2-6.8,9.6-11.6,12.4c-0.4-1.6-1.2-3.2-2-4.4
		c0,0-3.2-6.4-9.6-10.8c4-12,6-24.8,6-38s-2-26-6-38c6.4-4.4,9.6-10.8,9.6-10.8c0.8-1.6,1.2-3.2,2-4.8c5.2,2.8,9.2,6.8,11.6,12.4
		l10.4,21.2c2.8,0.8,6.4,4,6.4,4c2.4-1.6,4.8-2.8,7.6-4c0-1.6,1.6-3.6,3.6-4.4c2-0.8,4.4-0.8,5.6,0c8.8-3.2,22.4-5.6,32.8,5.6
		l-1.2-5.6c0,0,12.4,6.8,8,20c0,0,2-1.2,3.2-5.6c0,0,2.4,6-1.6,9.6C468.8,254,470.4,256,472,254z"/>
	<path style="fill:#4CDBC4;" d="M137.2,216c-4,12-6,24.8-6,38c0,13.2,2,26,6,38c-6.4,4.4-9.6,10.8-9.6,10.8c-0.8,1.6-1.2,3.2-2,4.4
		c-5.2-2.8-9.2-6.8-11.6-12.4l-10.4-21.2c-2.8-0.8-6.4-4-6.4-4c-2.4,1.6-4.8,2.8-7.6,4c0,1.6-1.6,3.6-3.6,4.4s-4.4,0.8-5.6,0
		c-8.8,3.2-22.4,5.6-32.8-5.6l1.2,5.6c0,0-12.4-6.8-8-20c0,0-2,1.2-3.2,5.2c0,0-2.4-6,1.6-9.6c0,0-1.6-2-3.2,0
		c0,0,0.4-10.4,8.8-19.6c11.6-12,26.4-9.2,36-4.8c1.2-0.4,3.2-0.4,4.8,0.4c2,0.8,3.2,2.4,3.6,4c1.2,0.8,6,3.6,7.6,4.4
		c0,0,4-3.2,6.8-4l10.4-21.2c2.4-5.2,6.8-9.6,11.6-12.4c0.4,1.6,1.2,3.2,2,4.4l0,0C127.6,205.6,130.8,211.6,137.2,216z"/>
</g>
<path style="fill:#FF7058;" d="M415.6,120c0.4,16.8-12,25.2-22,29.2c-0.4,1.2-2,2.4-3.6,3.2c-2,0.8-4,0.4-5.2-0.4
	c-1.6,0.4-6.8,1.6-8.4,2c0,0-0.4,5.2-2,7.6L382,184c2.4,7.2,2,14.8-1.6,21.6c0,0-3.2,6.4-9.6,10.8c-6-18.8-16.4-35.6-30-49.2
	s-30.4-24-48.8-30c4.4-6.4,10.8-9.6,10.8-9.6c6.8-3.6,14.4-4,21.6-1.6l22.4,7.6c2.4-1.6,7.2-2,7.6-1.6c0.4-2.8,1.6-5.6,2.4-8
	c-1.2-1.2-1.6-3.6-0.8-5.6c0.8-2,2.4-3.6,4-4c4-8.8,12-20,26.8-19.2L382,92c0,0,13.6-4,19.6,8.4c0,0,0.4-2.4-1.6-6c0,0,6,2.4,5.6,8
	c0,0,2.4,0.4,2-2.4C408,100,415.2,107.6,415.6,120z"/>
<path id="SVGCleanerId_0" style="fill:#FFFFFF;" d="M254,376.8L254,376.8c-68,0-122.8-54.8-122.8-122.8l0,0
	c0-68,54.8-122.8,122.8-122.8l0,0c68,0,122.8,54.8,122.8,122.8l0,0C376.8,322,322,376.8,254,376.8z"/>
<path style="fill:#FF7058;" d="M216,370.8c-4.4,6.4-10.8,9.6-10.8,9.6c-6.8,3.6-14.4,4-21.6,1.6l-22-8c-2.4,1.6-7.2,2-7.6,1.6
	c-0.4,2.8-1.6,5.6-2.4,8c1.2,1.2,1.6,3.6,0.8,5.6s-2.4,3.6-4,4c-4,8.8-12,20-26.8,19.2l4.8,3.2c0,0-13.6,4-19.6-8.4
	c0,0-0.4,2.4,1.6,6c0,0-6-2.4-5.6-7.6c0,0-2.4-0.4-2,2c0,0-7.2-7.6-7.6-20c-0.4-16.8,12-25.2,22-29.2c0.4-1.2,2-2.4,3.6-3.2
	c2-0.8,4-0.4,5.2,0.4c1.6-0.4,6.8-1.6,8.4-2c0,0,0.4-5.2,2-7.6l-7.6-22.4c-2.4-7.2-2-14.8,1.6-21.6c0,0,3.2-6.4,9.6-10.8
	C149.2,329.2,178.8,358.8,216,370.8z"/>
<g>
	<path style="fill:#54C0EB;" d="M413.6,400.4c0,0-2.4,6-7.6,5.6c0,0-0.4,2.4,2.4,2.4c0,0-7.6,7.2-20,7.2c-16.8,0.4-25.2-12-29.2-22
		c-1.2-0.8-2.4-2-3.2-3.6c-0.8-2-0.4-4,0.4-5.2c-0.4-1.6-1.6-6.8-2-8.4c0,0-5.2-0.4-7.6-2L324,382c-7.2,2.4-14.8,2-21.6-1.6
		c0,0-6.4-3.2-10.8-9.6c18.8-6,35.6-16.4,48.8-30c13.6-13.6,24-30.4,30-48.8c6.4,4.4,9.6,10.8,9.6,10.8c3.6,6.8,4,14.4,1.6,21.6
		l-7.6,22c1.6,2.4,2,7.2,1.6,7.6c2.8,0.4,5.6,1.6,8,2.4c1.2-1.2,3.6-1.6,5.6-0.8c2,0.8,3.6,2.4,4,4c8.8,4,20,12,19.2,26.8l3.2-4.8
		c0,0,4,13.6-8.4,19.6C407.6,402,410,402.4,413.6,400.4z"/>
	<path style="fill:#54C0EB;" d="M369.2,296.8c-1.2,2.8-2.4,5.6-3.6,8.8C366.8,302.8,368,300,369.2,296.8z"/>
	<path style="fill:#54C0EB;" d="M216,137.2c-18.8,6-35.6,16.4-48.8,30c-13.6,13.6-24,30.4-30,49.2c-6.4-4.4-9.6-10.8-9.6-10.8l0,0
		c-3.6-6.8-4-14.4-1.6-21.6l7.6-22.4c-1.6-2.4-2-7.2-1.6-7.6c-2.8-0.4-5.6-1.6-8-2.4c-1.2,1.2-3.6,1.6-5.6,0.8s-3.6-2.4-4-4
		c-8.8-4-20-12-19.2-26.8L92,126c0,0-4-13.6,8.4-19.6c0,0-2.4-0.4-6,1.6c0,0,2.4-6,7.6-5.6c0,0,0.4-2.4-2.4-2c0,0,7.6-7.2,20-7.6
		c16.8-0.4,25.2,12,29.2,22c1.2,0.8,2.4,2,3.2,3.6c0.8,2,0.4,4-0.4,5.2c0.4,1.6,1.6,6.8,2,8.4c0,0,5.2,0.4,7.6,2l22.4-7.6
		c7.2-2.4,14.8-2,21.6,1.6C205.6,127.6,211.6,130.8,216,137.2z"/>
</g>
<g>
	<path id="SVGCleanerId_0_1_" style="fill:#FFFFFF;" d="M254,376.8L254,376.8c-68,0-122.8-54.8-122.8-122.8l0,0
		c0-68,54.8-122.8,122.8-122.8l0,0c68,0,122.8,54.8,122.8,122.8l0,0C376.8,322,322,376.8,254,376.8z"/>
</g>
<g>
</g>
<g>
</g>
<g>
</g>
<g>
</g>
<g>
</g>
<g>
</g>
<g>
</g>
<g>
</g>
<g>
</g>
<g>
</g>
<g>
</g>
<g>
</g>
<g>
</g>
<g>
</g>
<g>
</g>
</svg>
