<?xml version="1.0" encoding="iso-8859-1"?>
<!-- Generator: Adobe Illustrator 19.0.0, SVG Export Plug-In . SVG Version: 6.00 Build 0)  -->
<svg version="1.1" id="Layer_1" xmlns="http://www.w3.org/2000/svg" xmlns:xlink="http://www.w3.org/1999/xlink" x="0px" y="0px"
	 viewBox="0 0 508 508" style="enable-background:new 0 0 508 508;" xml:space="preserve">
<circle style="fill:#FD8469;" cx="254" cy="254" r="254"/>
<path style="fill:#2B3B4E;" d="M328.7,106.2c-8-10-19.6-15.7-31.7-15.7h-86c-12.2,0-23.7,5.7-31.7,15.7
	c-9.2,11.5-12.7,27.2-9.4,42.1l10.3,46.3c6.3-5.8,14.9-9.5,26-9.5c0.1,0,0.2,0,0.3,0l-9.6-42.8c-1.5-6.7,0-13.7,3.9-18.6
	c1.6-2,5-5.3,10-5.3H297c5,0,8.5,3.3,10,5.3c4,5,5.4,11.9,3.9,18.6l-10.2,45.5c1-0.1,2.1-0.2,3.1-0.2c9.8,0,17.6,2.9,23.7,7.6
	l10.5-46.9C341.4,133.4,337.9,117.7,328.7,106.2z"/>
<circle style="fill:#324A5E;" cx="254" cy="291.6" r="125.9"/>
<path style="fill:#2B3B4E;" d="M272.5,416.2c-6,0.9-12.2,1.3-18.5,1.3c-69.5,0-125.9-56.4-125.9-125.9c0-36.5,15.5-69.3,40.3-92.4
	c-12.9,21.6-20.3,46.9-20.3,73.9C148.1,346.2,202.2,406.5,272.5,416.2z"/>
<g>
	<path style="fill:#E6E9EE;" d="M201.7,264.3H214V287l20.9-22.7h15.3l-22,24.5c1.9,2.6,5.4,7.6,10.5,14.8
		c5.1,7.2,8.9,12.6,11.5,16.1h-14.4l-16.2-21.8l-5.5,6.2v15.7h-12.3v-55.5H201.7z"/>
	<path style="fill:#E6E9EE;" d="M293.9,291.4h12.4V311c-5.5,6.1-13.1,9.2-22.8,9.2c-8.1,0-15-2.7-20.5-8.1s-8.3-12.2-8.3-20.4
		c0-8.2,2.8-15.1,8.4-20.5c5.6-5.5,12.4-8.2,20.3-8.2s14.8,2.6,20.7,7.8l-6.4,9.3c-2.5-2.2-4.8-3.7-6.8-4.5
		c-2.1-0.8-4.3-1.2-6.8-1.2c-4.7,0-8.7,1.6-11.9,4.8c-3.2,3.2-4.8,7.4-4.8,12.6s1.5,9.4,4.6,12.5s6.8,4.7,11,4.7
		c4.3,0,7.8-0.8,10.7-2.5v-15.1H293.9z"/>
</g>
<g>
</g>
<g>
</g>
<g>
</g>
<g>
</g>
<g>
</g>
<g>
</g>
<g>
</g>
<g>
</g>
<g>
</g>
<g>
</g>
<g>
</g>
<g>
</g>
<g>
</g>
<g>
</g>
<g>
</g>
</svg>
